<svg xmlns="http://www.w3.org/2000/svg" viewBox="0 0 1664.2450000000001 777" width="1664.2450000000001" height="777" style="--bg:#1a1b26;--fg:#a9b1d6;--line:#3d59a1;--accent:#7aa2f7;--muted:#565f89;background:var(--bg)">
<style>
  @import url('https://fonts.googleapis.com/css2?family=Inter:wght@400;500;600;700&amp;display=swap');
  text { font-family: 'Inter', system-ui, sans-serif; }
  svg {
    /* Derived from --bg and --fg (overridable via --line, --accent, etc.) */
    --_text:          var(--fg);
    --_text-sec:      var(--muted, color-mix(in srgb, var(--fg) 60%, var(--bg)));
    --_text-muted:    var(--muted, color-mix(in srgb, var(--fg) 40%, var(--bg)));
    --_text-faint:    color-mix(in srgb, var(--fg) 25%, var(--bg));
    --_line:          var(--line, color-mix(in srgb, var(--fg) 30%, var(--bg)));
    --_arrow:         var(--accent, color-mix(in srgb, var(--fg) 50%, var(--bg)));
    --_node-fill:     var(--surface, color-mix(in srgb, var(--fg) 3%, var(--bg)));
    --_node-stroke:   var(--border, color-mix(in srgb, var(--fg) 20%, var(--bg)));
    --_group-fill:    var(--bg);
    --_group-hdr:     color-mix(in srgb, var(--fg) 5%, var(--bg));
    --_inner-stroke:  color-mix(in srgb, var(--fg) 12%, var(--bg));
    --_key-badge:     color-mix(in srgb, var(--fg) 10%, var(--bg));
  }
</style>
<defs>
  <marker id="arrowhead" markerWidth="8" markerHeight="4.8" refX="8" refY="2.4" orient="auto">
    <polygon points="0 0, 8 2.4, 0 4.8" fill="var(--_arrow)" />
  </marker>
  <marker id="arrowhead-start" markerWidth="8" markerHeight="4.8" refX="0" refY="2.4" orient="auto-start-reverse">
    <polygon points="8 0, 0 2.4, 8 4.8" fill="var(--_arrow)" />
  </marker>
</defs>
<rect x="871.5462500000001" y="40" width="466.85" height="112" rx="0" ry="0" fill="var(--_group-fill)" stroke="var(--_node-stroke)" stroke-width="1" />
<rect x="871.5462500000001" y="40" width="466.85" height="28" rx="0" ry="0" fill="var(--_group-hdr)" stroke="var(--_node-stroke)" stroke-width="1" />
<text x="883.5462500000001" y="54" dy="0.35em" font-size="12" font-weight="600" fill="var(--_text-sec)">&quot;Agents&quot;</text>
<rect x="935.20875" y="233" width="398.85" height="172" rx="0" ry="0" fill="var(--_group-fill)" stroke="var(--_node-stroke)" stroke-width="1" />
<rect x="935.20875" y="233" width="398.85" height="28" rx="0" ry="0" fill="var(--_group-hdr)" stroke="var(--_node-stroke)" stroke-width="1" />
<text x="947.20875" y="247" dy="0.35em" font-size="12" font-weight="600" fill="var(--_text-sec)">&quot;Engram MCP Server&quot;</text>
<rect x="40" y="506" width="1386.145" height="211" rx="0" ry="0" fill="var(--_group-fill)" stroke="var(--_node-stroke)" stroke-width="1" />
<rect x="40" y="506" width="1386.145" height="28" rx="0" ry="0" fill="var(--_group-hdr)" stroke="var(--_node-stroke)" stroke-width="1" />
<text x="52" y="520" dy="0.35em" font-size="12" font-weight="600" fill="var(--_text-sec)">&quot;Convex Cloud — 10 Tables&quot;</text>
<rect x="1448.145" y="486" width="176.10000000000014" height="251" rx="0" ry="0" fill="var(--_group-fill)" stroke="var(--_node-stroke)" stroke-width="1" />
<rect x="1448.145" y="486" width="176.10000000000014" height="28" rx="0" ry="0" fill="var(--_group-hdr)" stroke="var(--_node-stroke)" stroke-width="1" />
<text x="1460.145" y="500" dy="0.35em" font-size="12" font-weight="600" fill="var(--_text-sec)">&quot;LanceDB Local&quot;</text>
<polyline points="963.17125,132 963.17125,299 1129.27125,299" fill="none" stroke="var(--_line)" stroke-width="0.75" marker-end="url(#arrowhead)" />
<polyline points="1119.27125,132 1119.27125,299 1129.27125,299" fill="none" stroke="var(--_line)" stroke-width="0.75" marker-end="url(#arrowhead)" />
<polyline points="1261.07125,132 1261.07125,299 1129.27125,299" fill="none" stroke="var(--_line)" stroke-width="0.75" marker-end="url(#arrowhead)" />
<polyline points="1134.63375,405 1134.63375,425 733.0725,425 733.0725,542" fill="none" stroke="var(--_line)" stroke-width="0.75" stroke-dasharray="4 4" marker-end="url(#arrowhead)" />
<polyline points="1226.98375,375 1226.98375,425 1536.1950000000002,425 1536.1950000000002,606" fill="none" stroke="var(--_line)" stroke-width="0.75" marker-end="url(#arrowhead)" />
<polyline points="1129.27125,317 1129.27125,337 1031.55875,337 1031.55875,357" fill="none" stroke="var(--_line)" stroke-width="0.75" marker-end="url(#arrowhead)" />
<polyline points="1129.27125,317 1129.27125,337 1226.98375,337 1226.98375,357" fill="none" stroke="var(--_line)" stroke-width="0.75" marker-end="url(#arrowhead)" />
<polyline points="1068.175,595.5 1068.175,681.5 1095.4899999999998,681.5" fill="none" stroke="var(--_line)" stroke-width="0.75" marker-end="url(#arrowhead)" />
<polyline points="1290.0549999999998,595.5 1290.0549999999998,629.5 1214.5649999999998,629.5 1214.5649999999998,681.5 1177.54,681.5" fill="none" stroke="var(--_line)" stroke-width="0.75" marker-end="url(#arrowhead)" />
<polyline points="1290.0549999999998,595.5 1290.0549999999998,629.5 1365.5449999999998,629.5 1365.5449999999998,658" fill="none" stroke="var(--_line)" stroke-width="0.75" marker-end="url(#arrowhead)" />
<rect x="923.71125" y="187" width="78.92" height="27" rx="4" ry="4" fill="var(--bg)" stroke="var(--_inner-stroke)" stroke-width="0.5" />
<text x="963.17125" y="200.5" text-anchor="middle" dy="0.35em" font-size="11" font-weight="400" fill="var(--_text-muted)">&quot;MCP stdio&quot;</text>
<rect x="1079.81125" y="187" width="78.92" height="27" rx="4" ry="4" fill="var(--bg)" stroke="var(--_inner-stroke)" stroke-width="0.5" />
<text x="1119.27125" y="200.5" text-anchor="middle" dy="0.35em" font-size="11" font-weight="400" fill="var(--_text-muted)">&quot;MCP stdio&quot;</text>
<rect x="1221.61125" y="187" width="78.92" height="27" rx="4" ry="4" fill="var(--bg)" stroke="var(--_inner-stroke)" stroke-width="0.5" />
<text x="1261.07125" y="200.5" text-anchor="middle" dy="0.35em" font-size="11" font-weight="400" fill="var(--_text-muted)">&quot;MCP stdio&quot;</text>
<rect x="690.7524999999999" y="460" width="84.64" height="27" rx="4" ry="4" fill="var(--bg)" stroke="var(--_inner-stroke)" stroke-width="0.5" />
<text x="733.0725" y="473.5" text-anchor="middle" dy="0.35em" font-size="11" font-weight="400" fill="var(--_text-muted)">&quot;pull facts&quot;</text>
<rect x="1499.5950000000003" y="460" width="73.2" height="27" rx="4" ry="4" fill="var(--bg)" stroke="var(--_inner-stroke)" stroke-width="0.5" />
<text x="1536.1950000000002" y="473.5" text-anchor="middle" dy="0.35em" font-size="11" font-weight="400" fill="var(--_text-muted)">&quot;30s sync&quot;</text>
<rect x="1037.2949999999998" y="616" width="61.760000000000005" height="27" rx="4" ry="4" fill="var(--bg)" stroke="var(--_inner-stroke)" stroke-width="0.5" />
<text x="1068.175" y="629.5" text-anchor="middle" dy="0.35em" font-size="11" font-weight="400" fill="var(--_text-muted)">&quot;enrich&quot;</text>
<rect x="1120.7649999999999" y="616" width="187.6" height="27" rx="4" ry="4" fill="var(--bg)" stroke="var(--_inner-stroke)" stroke-width="0.5" />
<text x="1214.5649999999998" y="629.5" text-anchor="middle" dy="0.35em" font-size="11" font-weight="400" fill="var(--_text-muted)">&quot;decay / forget / consolidate&quot;</text>
<rect x="1320.3649999999998" y="616" width="90.36" height="27" rx="4" ry="4" fill="var(--bg)" stroke="var(--_inner-stroke)" stroke-width="0.5" />
<text x="1365.5449999999998" y="629.5" text-anchor="middle" dy="0.35em" font-size="11" font-weight="400" fill="var(--_text-muted)">&quot;consolidate&quot;</text>
<rect x="893.54625" y="96" width="139.25" height="36" rx="0" ry="0" fill="var(--_node-fill)" stroke="var(--_node-stroke)" stroke-width="0.75" />
<rect x="1056.79625" y="96" width="124.95" height="36" rx="0" ry="0" fill="var(--_node-fill)" stroke="var(--_node-stroke)" stroke-width="0.75" />
<rect x="1205.74625" y="96" width="110.65" height="36" rx="0" ry="0" fill="var(--_node-fill)" stroke="var(--_node-stroke)" stroke-width="0.75" />
<rect x="1470.1450000000002" y="613" width="132.10000000000002" height="33" fill="var(--_node-fill)" stroke="none" />
<line x1="1470.1450000000002" y1="613" x2="1470.1450000000002" y2="646" stroke="var(--_node-stroke)" stroke-width="0.75" />
<line x1="1602.2450000000003" y1="613" x2="1602.2450000000003" y2="646" stroke="var(--_node-stroke)" stroke-width="0.75" />
<ellipse cx="1536.1950000000002" cy="646" rx="66.05000000000001" ry="7" fill="var(--_node-fill)" stroke="var(--_node-stroke)" stroke-width="0.75" />
<ellipse cx="1536.1950000000002" cy="613" rx="66.05000000000001" ry="7" fill="var(--_node-fill)" stroke="var(--_node-stroke)" stroke-width="0.75" />
<rect x="1063.22125" y="281" width="132.10000000000002" height="36" rx="0" ry="0" fill="var(--_node-fill)" stroke="var(--_node-stroke)" stroke-width="0.75" />
<rect x="951.20875" y="357" width="160.70000000000002" height="36" rx="0" ry="0" fill="var(--_node-fill)" stroke="var(--_node-stroke)" stroke-width="0.75" />
<rect x="1135.90875" y="357" width="182.15" height="36" rx="0" ry="0" fill="var(--_node-fill)" stroke="var(--_node-stroke)" stroke-width="0.75" />
<rect x="1095.4899999999998" y="665" width="82.05000000000001" height="33" fill="var(--_node-fill)" stroke="none" />
<line x1="1095.4899999999998" y1="665" x2="1095.4899999999998" y2="698" stroke="var(--_node-stroke)" stroke-width="0.75" />
<line x1="1177.5399999999997" y1="665" x2="1177.5399999999997" y2="698" stroke="var(--_node-stroke)" stroke-width="0.75" />
<ellipse cx="1136.5149999999999" cy="698" rx="41.025000000000006" ry="7" fill="var(--_node-fill)" stroke="var(--_node-stroke)" stroke-width="0.75" />
<ellipse cx="1136.5149999999999" cy="665" rx="41.025000000000006" ry="7" fill="var(--_node-fill)" stroke="var(--_node-stroke)" stroke-width="0.75" />
<rect x="56" y="561" width="103.5" height="33" fill="var(--_node-fill)" stroke="none" />
<line x1="56" y1="561" x2="56" y2="594" stroke="var(--_node-stroke)" stroke-width="0.75" />
<line x1="159.5" y1="561" x2="159.5" y2="594" stroke="var(--_node-stroke)" stroke-width="0.75" />
<ellipse cx="107.75" cy="594" rx="51.75" ry="7" fill="var(--_node-fill)" stroke="var(--_node-stroke)" stroke-width="0.75" />
<ellipse cx="107.75" cy="561" rx="51.75" ry="7" fill="var(--_node-fill)" stroke="var(--_node-stroke)" stroke-width="0.75" />
<rect x="183.5" y="561" width="139.25" height="33" fill="var(--_node-fill)" stroke="none" />
<line x1="183.5" y1="561" x2="183.5" y2="594" stroke="var(--_node-stroke)" stroke-width="0.75" />
<line x1="322.75" y1="561" x2="322.75" y2="594" stroke="var(--_node-stroke)" stroke-width="0.75" />
<ellipse cx="253.125" cy="594" rx="69.625" ry="7" fill="var(--_node-fill)" stroke="var(--_node-stroke)" stroke-width="0.75" />
<ellipse cx="253.125" cy="561" rx="69.625" ry="7" fill="var(--_node-fill)" stroke="var(--_node-stroke)" stroke-width="0.75" />
<rect x="346.75" y="561" width="89.2" height="33" fill="var(--_node-fill)" stroke="none" />
<line x1="346.75" y1="561" x2="346.75" y2="594" stroke="var(--_node-stroke)" stroke-width="0.75" />
<line x1="435.95" y1="561" x2="435.95" y2="594" stroke="var(--_node-stroke)" stroke-width="0.75" />
<ellipse cx="391.35" cy="594" rx="44.6" ry="7" fill="var(--_node-fill)" stroke="var(--_node-stroke)" stroke-width="0.75" />
<ellipse cx="391.35" cy="561" rx="44.6" ry="7" fill="var(--_node-fill)" stroke="var(--_node-stroke)" stroke-width="0.75" />
<rect x="459.95" y="561" width="96.35000000000001" height="33" fill="var(--_node-fill)" stroke="none" />
<line x1="459.95" y1="561" x2="459.95" y2="594" stroke="var(--_node-stroke)" stroke-width="0.75" />
<line x1="556.3" y1="561" x2="556.3" y2="594" stroke="var(--_node-stroke)" stroke-width="0.75" />
<ellipse cx="508.125" cy="594" rx="48.175000000000004" ry="7" fill="var(--_node-fill)" stroke="var(--_node-stroke)" stroke-width="0.75" />
<ellipse cx="508.125" cy="561" rx="48.175000000000004" ry="7" fill="var(--_node-fill)" stroke="var(--_node-stroke)" stroke-width="0.75" />
<rect x="1320.945" y="665" width="89.2" height="33" fill="var(--_node-fill)" stroke="none" />
<line x1="1320.945" y1="665" x2="1320.945" y2="698" stroke="var(--_node-stroke)" stroke-width="0.75" />
<line x1="1410.145" y1="665" x2="1410.145" y2="698" stroke="var(--_node-stroke)" stroke-width="0.75" />
<ellipse cx="1365.5449999999998" cy="698" rx="44.6" ry="7" fill="var(--_node-fill)" stroke="var(--_node-stroke)" stroke-width="0.75" />
<ellipse cx="1365.5449999999998" cy="665" rx="44.6" ry="7" fill="var(--_node-fill)" stroke="var(--_node-stroke)" stroke-width="0.75" />
<rect x="580.3" y="561" width="139.25" height="33" fill="var(--_node-fill)" stroke="none" />
<line x1="580.3" y1="561" x2="580.3" y2="594" stroke="var(--_node-stroke)" stroke-width="0.75" />
<line x1="719.55" y1="561" x2="719.55" y2="594" stroke="var(--_node-stroke)" stroke-width="0.75" />
<ellipse cx="649.925" cy="594" rx="69.625" ry="7" fill="var(--_node-fill)" stroke="var(--_node-stroke)" stroke-width="0.75" />
<ellipse cx="649.925" cy="561" rx="69.625" ry="7" fill="var(--_node-fill)" stroke="var(--_node-stroke)" stroke-width="0.75" />
<rect x="743.55" y="561" width="103.5" height="33" fill="var(--_node-fill)" stroke="none" />
<line x1="743.55" y1="561" x2="743.55" y2="594" stroke="var(--_node-stroke)" stroke-width="0.75" />
<line x1="847.05" y1="561" x2="847.05" y2="594" stroke="var(--_node-stroke)" stroke-width="0.75" />
<ellipse cx="795.3" cy="594" rx="51.75" ry="7" fill="var(--_node-fill)" stroke="var(--_node-stroke)" stroke-width="0.75" />
<ellipse cx="795.3" cy="561" rx="51.75" ry="7" fill="var(--_node-fill)" stroke="var(--_node-stroke)" stroke-width="0.75" />
<rect x="871.05" y="561" width="103.5" height="33" fill="var(--_node-fill)" stroke="none" />
<line x1="871.05" y1="561" x2="871.05" y2="594" stroke="var(--_node-stroke)" stroke-width="0.75" />
<line x1="974.55" y1="561" x2="974.55" y2="594" stroke="var(--_node-stroke)" stroke-width="0.75" />
<ellipse cx="922.8" cy="594" rx="51.75" ry="7" fill="var(--_node-fill)" stroke="var(--_node-stroke)" stroke-width="0.75" />
<ellipse cx="922.8" cy="561" rx="51.75" ry="7" fill="var(--_node-fill)" stroke="var(--_node-stroke)" stroke-width="0.75" />
<rect x="1227.58" y="559.5" width="124.95" height="36" rx="0" ry="0" fill="var(--_node-fill)" stroke="var(--_node-stroke)" stroke-width="0.75" />
<rect x="998.55" y="559.5" width="139.25" height="36" rx="0" ry="0" fill="var(--_node-fill)" stroke="var(--_node-stroke)" stroke-width="0.75" />
<text x="963.17125" y="114" text-anchor="middle" dy="0.35em" font-size="13" font-weight="500" fill="var(--_text)">&quot;Claude / Indy&quot;</text>
<text x="1119.27125" y="114" text-anchor="middle" dy="0.35em" font-size="13" font-weight="500" fill="var(--_text)">&quot;Coder Agent&quot;</text>
<text x="1261.07125" y="114" text-anchor="middle" dy="0.35em" font-size="13" font-weight="500" fill="var(--_text)">&quot;ML Worker&quot;</text>
<text x="1536.1950000000002" y="629.5" text-anchor="middle" dy="0.35em" font-size="13" font-weight="500" fill="var(--_text)">&quot;Vector Cache&quot;</text>
<text x="1129.27125" y="299" text-anchor="middle" dy="0.35em" font-size="13" font-weight="500" fill="var(--_text)">&quot;12 MCP Tools&quot;</text>
<text x="1031.55875" y="375" text-anchor="middle" dy="0.35em" font-size="13" font-weight="500" fill="var(--_text)">&quot;ConvexHttpClient&quot;</text>
<text x="1226.98375" y="375" text-anchor="middle" dy="0.35em" font-size="13" font-weight="500" fill="var(--_text)">&quot;LanceDB Sync Daemon&quot;</text>
<text x="1136.5149999999999" y="681.5" text-anchor="middle" dy="0.35em" font-size="13" font-weight="500" fill="var(--_text)">&quot;facts&quot;</text>
<text x="107.75" y="577.5" text-anchor="middle" dy="0.35em" font-size="13" font-weight="500" fill="var(--_text)">&quot;entities&quot;</text>
<text x="253.125" y="577.5" text-anchor="middle" dy="0.35em" font-size="13" font-weight="500" fill="var(--_text)">&quot;memory_scopes&quot;</text>
<text x="391.35" y="577.5" text-anchor="middle" dy="0.35em" font-size="13" font-weight="500" fill="var(--_text)">&quot;agents&quot;</text>
<text x="508.125" y="577.5" text-anchor="middle" dy="0.35em" font-size="13" font-weight="500" fill="var(--_text)">&quot;signals&quot;</text>
<text x="1365.5449999999998" y="681.5" text-anchor="middle" dy="0.35em" font-size="13" font-weight="500" fill="var(--_text)">&quot;themes&quot;</text>
<text x="649.925" y="577.5" text-anchor="middle" dy="0.35em" font-size="13" font-weight="500" fill="var(--_text)">&quot;conversations&quot;</text>
<text x="795.3" y="577.5" text-anchor="middle" dy="0.35em" font-size="13" font-weight="500" fill="var(--_text)">&quot;sessions&quot;</text>
<text x="922.8" y="577.5" text-anchor="middle" dy="0.35em" font-size="13" font-weight="500" fill="var(--_text)">&quot;sync_log&quot;</text>
<text x="1290.0549999999998" y="577.5" text-anchor="middle" dy="0.35em" font-size="13" font-weight="500" fill="var(--_text)">&quot;7 Cron Jobs&quot;</text>
<text x="1068.175" y="577.5" text-anchor="middle" dy="0.35em" font-size="13" font-weight="500" fill="var(--_text)">&quot;Async Actions&quot;</text>
</svg>