<svg xmlns="http://www.w3.org/2000/svg" viewBox="0 0 2855.585 732" width="2855.585" height="732" style="--bg:#FFFFFF;--fg:#27272A;background:var(--bg)">
<style>
  @import url('https://fonts.googleapis.com/css2?family=Inter:wght@400;500;600;700&amp;display=swap');
  text { font-family: 'Inter', system-ui, sans-serif; }
  svg {
    /* Derived from --bg and --fg (overridable via --line, --accent, etc.) */
    --_text:          var(--fg);
    --_text-sec:      var(--muted, color-mix(in srgb, var(--fg) 60%, var(--bg)));
    --_text-muted:    var(--muted, color-mix(in srgb, var(--fg) 40%, var(--bg)));
    --_text-faint:    color-mix(in srgb, var(--fg) 25%, var(--bg));
    --_line:          var(--line, color-mix(in srgb, var(--fg) 30%, var(--bg)));
    --_arrow:         var(--accent, color-mix(in srgb, var(--fg) 50%, var(--bg)));
    --_node-fill:     var(--surface, color-mix(in srgb, var(--fg) 3%, var(--bg)));
    --_node-stroke:   var(--border, color-mix(in srgb, var(--fg) 20%, var(--bg)));
    --_group-fill:    var(--bg);
    --_group-hdr:     color-mix(in srgb, var(--fg) 5%, var(--bg));
    --_inner-stroke:  color-mix(in srgb, var(--fg) 12%, var(--bg));
    --_key-badge:     color-mix(in srgb, var(--fg) 10%, var(--bg));
  }
</style>
<defs>
  <marker id="arrowhead" markerWidth="8" markerHeight="4.8" refX="8" refY="2.4" orient="auto">
    <polygon points="0 0, 8 2.4, 0 4.8" fill="var(--_arrow)" />
  </marker>
  <marker id="arrowhead-start" markerWidth="8" markerHeight="4.8" refX="0" refY="2.4" orient="auto-start-reverse">
    <polygon points="8 0, 0 2.4, 8 4.8" fill="var(--_arrow)" />
  </marker>
</defs>
<rect x="72.96250000000009" y="513" width="2742.6225" height="179" rx="0" ry="0" fill="var(--_group-fill)" stroke="var(--_node-stroke)" stroke-width="1" />
<rect x="72.96250000000009" y="513" width="2742.6225" height="28" rx="0" ry="0" fill="var(--_group-hdr)" stroke="var(--_node-stroke)" stroke-width="1" />
<text x="84.96250000000009" y="527" dy="0.35em" font-size="12" font-weight="600" fill="var(--_text-sec)">&quot;☁️ Convex Cloud&quot;</text>
<rect x="1306.835" y="549" width="744.5" height="123" rx="0" ry="0" fill="var(--_group-fill)" stroke="var(--_node-stroke)" stroke-width="1" />
<rect x="1306.835" y="549" width="744.5" height="28" rx="0" ry="0" fill="var(--_group-hdr)" stroke="var(--_node-stroke)" stroke-width="1" />
<text x="1318.835" y="563" dy="0.35em" font-size="12" font-weight="600" fill="var(--_text-sec)">&quot;⚡ Async Actions&quot;</text>
<rect x="2071.335" y="549" width="724.25" height="123" rx="0" ry="0" fill="var(--_group-fill)" stroke="var(--_node-stroke)" stroke-width="1" />
<rect x="2071.335" y="549" width="724.25" height="28" rx="0" ry="0" fill="var(--_group-hdr)" stroke="var(--_node-stroke)" stroke-width="1" />
<text x="2083.335" y="563" dy="0.35em" font-size="12" font-weight="600" fill="var(--_text-sec)">&quot;⏰ Scheduled&quot;</text>
<rect x="40" y="276" width="378.0174999999998" height="152" rx="0" ry="0" fill="var(--_group-fill)" stroke="var(--_node-stroke)" stroke-width="1" />
<rect x="40" y="276" width="378.0174999999998" height="28" rx="0" ry="0" fill="var(--_group-hdr)" stroke="var(--_node-stroke)" stroke-width="1" />
<text x="52" y="290" dy="0.35em" font-size="12" font-weight="600" fill="var(--_text-sec)">&quot;🖥️ Mac Mini — Orchestrator&quot;</text>
<rect x="541.7" y="40" width="325.05" height="388" rx="0" ry="0" fill="var(--_group-fill)" stroke="var(--_node-stroke)" stroke-width="1" />
<rect x="541.7" y="40" width="325.05" height="28" rx="0" ry="0" fill="var(--_group-hdr)" stroke="var(--_node-stroke)" stroke-width="1" />
<text x="553.7" y="54" dy="0.35em" font-size="12" font-weight="600" fill="var(--_text-sec)">&quot;💻 MacBook Air — GPU/ML&quot;</text>
<rect x="980.4224999999998" y="40" width="398.03750000000014" height="388" rx="0" ry="0" fill="var(--_group-fill)" stroke="var(--_node-stroke)" stroke-width="1" />
<rect x="980.4224999999998" y="40" width="398.03750000000014" height="28" rx="0" ry="0" fill="var(--_group-hdr)" stroke="var(--_node-stroke)" stroke-width="1" />
<text x="992.4224999999998" y="54" dy="0.35em" font-size="12" font-weight="600" fill="var(--_text-sec)">&quot;💻 MacBook Pro — Coder&quot;</text>
<polyline points="622.6,152 622.6,352" fill="none" stroke="var(--_line)" stroke-width="0.75" marker-end="url(#arrowhead)" />
<polyline points="1075.6225,152 1075.6225,352" fill="none" stroke="var(--_line)" stroke-width="0.75" marker-end="url(#arrowhead)" />
<polyline points="120.90000000000005,388 120.90000000000005,628.5 302.15,628.5" fill="none" stroke="var(--_line)" stroke-width="0.75" marker-end="url(#arrowhead)" marker-start="url(#arrowhead-start)" />
<polyline points="622.6,388 622.6,448 336.025,448 336.025,605" fill="none" stroke="var(--_line)" stroke-width="0.75" marker-end="url(#arrowhead)" marker-start="url(#arrowhead-start)" />
<polyline points="1075.6225,388 1075.6225,448 638.6825000000002,448 638.6825000000002,628.5 369.9,628.5" fill="none" stroke="var(--_line)" stroke-width="0.75" marker-end="url(#arrowhead)" marker-start="url(#arrowhead-start)" />
<polyline points="326.3924999999998,388 326.3924999999998,448 726.7425000000002,448 726.7425000000002,628.5 1017.0999999999998,628.5" fill="none" stroke="var(--_line)" stroke-width="0.75" stroke-dasharray="4 4" marker-end="url(#arrowhead)" marker-start="url(#arrowhead-start)" />
<polyline points="775.125,388 775.125,448 1061.6999999999998,448 1061.6999999999998,605" fill="none" stroke="var(--_line)" stroke-width="0.75" stroke-dasharray="4 4" marker-end="url(#arrowhead)" marker-start="url(#arrowhead-start)" />
<polyline points="1286.835,388 1286.835,628.5 1106.2999999999997,628.5" fill="none" stroke="var(--_line)" stroke-width="0.75" stroke-dasharray="4 4" marker-end="url(#arrowhead)" marker-start="url(#arrowhead-start)" />
<rect x="84.30000000000004" y="483" width="73.2" height="27" rx="4" ry="4" fill="var(--bg)" stroke="var(--_inner-stroke)" stroke-width="0.5" />
<text x="120.90000000000005" y="496.5" text-anchor="middle" dy="0.35em" font-size="11" font-weight="400" fill="var(--_text-muted)">&quot;HTTP API&quot;</text>
<rect x="299.42499999999995" y="483" width="73.2" height="27" rx="4" ry="4" fill="var(--bg)" stroke="var(--_inner-stroke)" stroke-width="0.5" />
<text x="336.025" y="496.5" text-anchor="middle" dy="0.35em" font-size="11" font-weight="400" fill="var(--_text-muted)">&quot;HTTP API&quot;</text>
<rect x="602.0825000000002" y="483" width="73.2" height="27" rx="4" ry="4" fill="var(--bg)" stroke="var(--_inner-stroke)" stroke-width="0.5" />
<text x="638.6825000000002" y="496.5" text-anchor="middle" dy="0.35em" font-size="11" font-weight="400" fill="var(--_text-muted)">&quot;HTTP API&quot;</text>
<rect x="687.2825000000001" y="483" width="78.92" height="27" rx="4" ry="4" fill="var(--bg)" stroke="var(--_inner-stroke)" stroke-width="0.5" />
<text x="726.7425000000002" y="496.5" text-anchor="middle" dy="0.35em" font-size="11" font-weight="400" fill="var(--_text-muted)">&quot;5min sync&quot;</text>
<rect x="1022.2399999999998" y="483" width="78.92" height="27" rx="4" ry="4" fill="var(--bg)" stroke="var(--_inner-stroke)" stroke-width="0.5" />
<text x="1061.6999999999998" y="496.5" text-anchor="middle" dy="0.35em" font-size="11" font-weight="400" fill="var(--_text-muted)">&quot;5min sync&quot;</text>
<rect x="1247.375" y="483" width="78.92" height="27" rx="4" ry="4" fill="var(--bg)" stroke="var(--_inner-stroke)" stroke-width="0.5" />
<text x="1286.835" y="496.5" text-anchor="middle" dy="0.35em" font-size="11" font-weight="400" fill="var(--_text-muted)">&quot;5min sync&quot;</text>
<rect x="302.15" y="612" width="67.75" height="33" fill="var(--_node-fill)" stroke="none" />
<line x1="302.15" y1="612" x2="302.15" y2="645" stroke="var(--_node-stroke)" stroke-width="0.75" />
<line x1="369.9" y1="612" x2="369.9" y2="645" stroke="var(--_node-stroke)" stroke-width="0.75" />
<ellipse cx="336.025" cy="645" rx="33.875" ry="7" fill="var(--_node-fill)" stroke="var(--_node-stroke)" stroke-width="0.75" />
<ellipse cx="336.025" cy="612" rx="33.875" ry="7" fill="var(--_node-fill)" stroke="var(--_node-stroke)" stroke-width="0.75" />
<rect x="393.8999999999999" y="612" width="89.2" height="33" fill="var(--_node-fill)" stroke="none" />
<line x1="393.8999999999999" y1="612" x2="393.8999999999999" y2="645" stroke="var(--_node-stroke)" stroke-width="0.75" />
<line x1="483.0999999999999" y1="612" x2="483.0999999999999" y2="645" stroke="var(--_node-stroke)" stroke-width="0.75" />
<ellipse cx="438.49999999999994" cy="645" rx="44.6" ry="7" fill="var(--_node-fill)" stroke="var(--_node-stroke)" stroke-width="0.75" />
<ellipse cx="438.49999999999994" cy="612" rx="44.6" ry="7" fill="var(--_node-fill)" stroke="var(--_node-stroke)" stroke-width="0.75" />
<rect x="507.0999999999998" y="612" width="124.95" height="33" fill="var(--_node-fill)" stroke="none" />
<line x1="507.0999999999998" y1="612" x2="507.0999999999998" y2="645" stroke="var(--_node-stroke)" stroke-width="0.75" />
<line x1="632.0499999999998" y1="612" x2="632.0499999999998" y2="645" stroke="var(--_node-stroke)" stroke-width="0.75" />
<ellipse cx="569.5749999999998" cy="645" rx="62.475" ry="7" fill="var(--_node-fill)" stroke="var(--_node-stroke)" stroke-width="0.75" />
<ellipse cx="569.5749999999998" cy="612" rx="62.475" ry="7" fill="var(--_node-fill)" stroke="var(--_node-stroke)" stroke-width="0.75" />
<rect x="656.0499999999997" y="612" width="89.2" height="33" fill="var(--_node-fill)" stroke="none" />
<line x1="656.0499999999997" y1="612" x2="656.0499999999997" y2="645" stroke="var(--_node-stroke)" stroke-width="0.75" />
<line x1="745.2499999999998" y1="612" x2="745.2499999999998" y2="645" stroke="var(--_node-stroke)" stroke-width="0.75" />
<ellipse cx="700.6499999999997" cy="645" rx="44.6" ry="7" fill="var(--_node-fill)" stroke="var(--_node-stroke)" stroke-width="0.75" />
<ellipse cx="700.6499999999997" cy="612" rx="44.6" ry="7" fill="var(--_node-fill)" stroke="var(--_node-stroke)" stroke-width="0.75" />
<rect x="769.2499999999998" y="612" width="74.9" height="33" fill="var(--_node-fill)" stroke="none" />
<line x1="769.2499999999998" y1="612" x2="769.2499999999998" y2="645" stroke="var(--_node-stroke)" stroke-width="0.75" />
<line x1="844.1499999999997" y1="612" x2="844.1499999999997" y2="645" stroke="var(--_node-stroke)" stroke-width="0.75" />
<ellipse cx="806.6999999999998" cy="645" rx="37.45" ry="7" fill="var(--_node-fill)" stroke="var(--_node-stroke)" stroke-width="0.75" />
<ellipse cx="806.6999999999998" cy="612" rx="37.45" ry="7" fill="var(--_node-fill)" stroke="var(--_node-stroke)" stroke-width="0.75" />
<rect x="868.1499999999997" y="612" width="124.95" height="33" fill="var(--_node-fill)" stroke="none" />
<line x1="868.1499999999997" y1="612" x2="868.1499999999997" y2="645" stroke="var(--_node-stroke)" stroke-width="0.75" />
<line x1="993.0999999999998" y1="612" x2="993.0999999999998" y2="645" stroke="var(--_node-stroke)" stroke-width="0.75" />
<ellipse cx="930.6249999999998" cy="645" rx="62.475" ry="7" fill="var(--_node-fill)" stroke="var(--_node-stroke)" stroke-width="0.75" />
<ellipse cx="930.6249999999998" cy="612" rx="62.475" ry="7" fill="var(--_node-fill)" stroke="var(--_node-stroke)" stroke-width="0.75" />
<rect x="1017.0999999999998" y="612" width="89.2" height="33" fill="var(--_node-fill)" stroke="none" />
<line x1="1017.0999999999998" y1="612" x2="1017.0999999999998" y2="645" stroke="var(--_node-stroke)" stroke-width="0.75" />
<line x1="1106.2999999999997" y1="612" x2="1106.2999999999997" y2="645" stroke="var(--_node-stroke)" stroke-width="0.75" />
<ellipse cx="1061.6999999999998" cy="645" rx="44.6" ry="7" fill="var(--_node-fill)" stroke="var(--_node-stroke)" stroke-width="0.75" />
<ellipse cx="1061.6999999999998" cy="612" rx="44.6" ry="7" fill="var(--_node-fill)" stroke="var(--_node-stroke)" stroke-width="0.75" />
<rect x="1328.835" y="610.5" width="182.15" height="36" rx="0" ry="0" fill="var(--_node-fill)" stroke="var(--_node-stroke)" stroke-width="0.75" />
<rect x="1534.9850000000001" y="610.5" width="160.70000000000002" height="36" rx="0" ry="0" fill="var(--_node-fill)" stroke="var(--_node-stroke)" stroke-width="0.75" />
<rect x="1719.685" y="610.5" width="175" height="36" rx="0" ry="0" fill="var(--_node-fill)" stroke="var(--_node-stroke)" stroke-width="0.75" />
<rect x="1918.685" y="610.5" width="110.65" height="36" rx="0" ry="0" fill="var(--_node-fill)" stroke="var(--_node-stroke)" stroke-width="0.75" />
<rect x="2093.335" y="610.5" width="203.60000000000002" height="36" rx="0" ry="0" fill="var(--_node-fill)" stroke="var(--_node-stroke)" stroke-width="0.75" />
<rect x="2320.935" y="610.5" width="225.05" height="36" rx="0" ry="0" fill="var(--_node-fill)" stroke="var(--_node-stroke)" stroke-width="0.75" />
<rect x="2569.9849999999997" y="610.5" width="203.60000000000002" height="36" rx="0" ry="0" fill="var(--_node-fill)" stroke="var(--_node-stroke)" stroke-width="0.75" />
<rect x="62.00000000000004" y="352" width="117.80000000000001" height="36" rx="0" ry="0" fill="var(--_node-fill)" stroke="var(--_node-stroke)" stroke-width="0.75" />
<rect x="256.7674999999998" y="352" width="139.25" height="36" rx="0" ry="0" fill="var(--_node-fill)" stroke="var(--_node-stroke)" stroke-width="0.75" />
<rect x="574.4250000000001" y="116" width="96.35000000000001" height="36" rx="0" ry="0" fill="var(--_node-fill)" stroke="var(--_node-stroke)" stroke-width="0.75" />
<rect x="563.7" y="352" width="117.80000000000001" height="36" rx="0" ry="0" fill="var(--_node-fill)" stroke="var(--_node-stroke)" stroke-width="0.75" />
<rect x="705.5" y="352" width="139.25" height="36" rx="0" ry="0" fill="var(--_node-fill)" stroke="var(--_node-stroke)" stroke-width="0.75" />
<rect x="1002.4224999999999" y="116" width="146.4" height="36" rx="0" ry="0" fill="var(--_node-fill)" stroke="var(--_node-stroke)" stroke-width="0.75" />
<rect x="1016.7225" y="352" width="117.80000000000001" height="36" rx="0" ry="0" fill="var(--_node-fill)" stroke="var(--_node-stroke)" stroke-width="0.75" />
<rect x="1217.21" y="352" width="139.25" height="36" rx="0" ry="0" fill="var(--_node-fill)" stroke="var(--_node-stroke)" stroke-width="0.75" />
<text x="336.025" y="628.5" text-anchor="middle" dy="0.35em" font-size="13" font-weight="500" fill="var(--_text)">Facts</text>
<text x="438.49999999999994" y="628.5" text-anchor="middle" dy="0.35em" font-size="13" font-weight="500" fill="var(--_text)">Entities</text>
<text x="569.5749999999998" y="628.5" text-anchor="middle" dy="0.35em" font-size="13" font-weight="500" fill="var(--_text)">Conversations</text>
<text x="700.6499999999997" y="628.5" text-anchor="middle" dy="0.35em" font-size="13" font-weight="500" fill="var(--_text)">Sessions</text>
<text x="806.6999999999998" y="628.5" text-anchor="middle" dy="0.35em" font-size="13" font-weight="500" fill="var(--_text)">Agents</text>
<text x="930.6249999999998" y="628.5" text-anchor="middle" dy="0.35em" font-size="13" font-weight="500" fill="var(--_text)">Memory Scopes</text>
<text x="1061.6999999999998" y="628.5" text-anchor="middle" dy="0.35em" font-size="13" font-weight="500" fill="var(--_text)">Sync Log</text>
<text x="1419.91" y="628.5" text-anchor="middle" dy="0.35em" font-size="13" font-weight="500" fill="var(--_text)">&quot;Generate Embeddings&quot;</text>
<text x="1615.335" y="628.5" text-anchor="middle" dy="0.35em" font-size="13" font-weight="500" fill="var(--_text)">&quot;Extract Entities&quot;</text>
<text x="1807.185" y="628.5" text-anchor="middle" dy="0.35em" font-size="13" font-weight="500" fill="var(--_text)">&quot;Importance Scoring&quot;</text>
<text x="1974.01" y="628.5" text-anchor="middle" dy="0.35em" font-size="13" font-weight="500" fill="var(--_text)">&quot;Summarize&quot;</text>
<text x="2195.135" y="628.5" text-anchor="middle" dy="0.35em" font-size="13" font-weight="500" fill="var(--_text)">&quot;Daily: Relevance Decay&quot;</text>
<text x="2433.46" y="628.5" text-anchor="middle" dy="0.35em" font-size="13" font-weight="500" fill="var(--_text)">&quot;Weekly: Rerank Importance&quot;</text>
<text x="2671.785" y="628.5" text-anchor="middle" dy="0.35em" font-size="13" font-weight="500" fill="var(--_text)">&quot;Daily: Garbage Collect&quot;</text>
<text x="120.90000000000005" y="370" text-anchor="middle" dy="0.35em" font-size="13" font-weight="500" fill="var(--_text)">&quot;MCP Server&quot;</text>
<text x="326.3924999999998" y="370" text-anchor="middle" dy="0.35em" font-size="13" font-weight="500" fill="var(--_text)">&quot;LanceDB Cache&quot;</text>
<text x="622.6" y="134" text-anchor="middle" dy="0.35em" font-size="13" font-weight="500" fill="var(--_text)">&quot;🦁 Indy&quot;</text>
<text x="622.6" y="370" text-anchor="middle" dy="0.35em" font-size="13" font-weight="500" fill="var(--_text)">&quot;MCP Server&quot;</text>
<text x="775.125" y="370" text-anchor="middle" dy="0.35em" font-size="13" font-weight="500" fill="var(--_text)">&quot;LanceDB Cache&quot;</text>
<text x="1075.6225" y="134" text-anchor="middle" dy="0.35em" font-size="13" font-weight="500" fill="var(--_text)">&quot;🔧 Coder Agent&quot;</text>
<text x="1075.6225" y="370" text-anchor="middle" dy="0.35em" font-size="13" font-weight="500" fill="var(--_text)">&quot;MCP Server&quot;</text>
<text x="1286.835" y="370" text-anchor="middle" dy="0.35em" font-size="13" font-weight="500" fill="var(--_text)">&quot;LanceDB Cache&quot;</text>
</svg>