<svg xmlns="http://www.w3.org/2000/svg" viewBox="0 0 3761.0900000000006 410" width="3761.0900000000006" height="410" style="--bg:#1a1b26;--fg:#a9b1d6;--line:#3d59a1;--accent:#7aa2f7;--muted:#565f89;background:var(--bg)">
<style>
  @import url('https://fonts.googleapis.com/css2?family=Inter:wght@400;500;600;700&amp;display=swap');
  text { font-family: 'Inter', system-ui, sans-serif; }
  svg {
    /* Derived from --bg and --fg (overridable via --line, --accent, etc.) */
    --_text:          var(--fg);
    --_text-sec:      var(--muted, color-mix(in srgb, var(--fg) 60%, var(--bg)));
    --_text-muted:    var(--muted, color-mix(in srgb, var(--fg) 40%, var(--bg)));
    --_text-faint:    color-mix(in srgb, var(--fg) 25%, var(--bg));
    --_line:          var(--line, color-mix(in srgb, var(--fg) 30%, var(--bg)));
    --_arrow:         var(--accent, color-mix(in srgb, var(--fg) 50%, var(--bg)));
    --_node-fill:     var(--surface, color-mix(in srgb, var(--fg) 3%, var(--bg)));
    --_node-stroke:   var(--border, color-mix(in srgb, var(--fg) 20%, var(--bg)));
    --_group-fill:    var(--bg);
    --_group-hdr:     color-mix(in srgb, var(--fg) 5%, var(--bg));
    --_inner-stroke:  color-mix(in srgb, var(--fg) 12%, var(--bg));
    --_key-badge:     color-mix(in srgb, var(--fg) 10%, var(--bg));
  }
</style>
<defs>
  <marker id="arrowhead" markerWidth="8" markerHeight="4.8" refX="8" refY="2.4" orient="auto">
    <polygon points="0 0, 8 2.4, 0 4.8" fill="var(--_arrow)" />
  </marker>
  <marker id="arrowhead-start" markerWidth="8" markerHeight="4.8" refX="0" refY="2.4" orient="auto-start-reverse">
    <polygon points="8 0, 0 2.4, 8 4.8" fill="var(--_arrow)" />
  </marker>
</defs>
<rect x="40" y="40" width="322.25" height="150.25" rx="0" ry="0" fill="var(--_group-fill)" stroke="var(--_node-stroke)" stroke-width="1" />
<rect x="40" y="40" width="322.25" height="28" rx="0" ry="0" fill="var(--_group-hdr)" stroke="var(--_node-stroke)" stroke-width="1" />
<text x="52" y="54" dy="0.35em" font-size="12" font-weight="600" fill="var(--_text-sec)">&quot;Agent Context&quot;</text>
<rect x="513.1700000000001" y="40" width="1141.3200000000002" height="168.75" rx="0" ry="0" fill="var(--_group-fill)" stroke="var(--_node-stroke)" stroke-width="1" />
<rect x="513.1700000000001" y="40" width="1141.3200000000002" height="28" rx="0" ry="0" fill="var(--_group-hdr)" stroke="var(--_node-stroke)" stroke-width="1" />
<text x="525.1700000000001" y="54" dy="0.35em" font-size="12" font-weight="600" fill="var(--_text-sec)">&quot;Immediate — under 50ms&quot;</text>
<rect x="1317.94" y="192.75" width="1843.6000000000001" height="176" rx="0" ry="0" fill="var(--_group-fill)" stroke="var(--_node-stroke)" stroke-width="1" />
<rect x="1317.94" y="192.75" width="1843.6000000000001" height="28" rx="0" ry="0" fill="var(--_group-hdr)" stroke="var(--_node-stroke)" stroke-width="1" />
<text x="1329.94" y="206.75" dy="0.35em" font-size="12" font-weight="600" fill="var(--_text-sec)">&quot;Async — Agent never waits&quot;</text>
<rect x="3241.5400000000004" y="217.25" width="479.5500000000002" height="127" rx="0" ry="0" fill="var(--_group-fill)" stroke="var(--_node-stroke)" stroke-width="1" />
<rect x="3241.5400000000004" y="217.25" width="479.5500000000002" height="28" rx="0" ry="0" fill="var(--_group-hdr)" stroke="var(--_node-stroke)" stroke-width="1" />
<text x="3253.5400000000004" y="231.25" dy="0.35em" font-size="12" font-weight="600" fill="var(--_text-sec)">&quot;Enriched Fact&quot;</text>
<polyline points="342.25,140.25 362.25,140.25 362.25,160.25 533.1700000000001,160.25" fill="none" stroke="var(--_line)" stroke-width="0.75" marker-end="url(#arrowhead)" />
<polyline points="708.1700000000001,160.25 944.8500000000001,160.25" fill="none" stroke="var(--_line)" stroke-width="0.75" marker-end="url(#arrowhead)" />
<polyline points="1112.7,160.25 1132.7000000000003,160.25 1132.7000000000003,146 1486.2150000000004,146 1486.2150000000004,144" fill="none" stroke="var(--_line)" stroke-width="0.75" marker-end="url(#arrowhead)" />
<polyline points="1337.9400000000003,126 1317.9400000000003,126 1317.9400000000003,116 201.125,116 201.125,122.25" fill="none" stroke="var(--_line)" stroke-width="0.75" marker-end="url(#arrowhead)" />
<polyline points="1112.7,160.25 1132.7000000000003,160.25 1132.7000000000003,174.5 1486.2150000000004,174.5 1486.2150000000004,280.75" fill="none" stroke="var(--_line)" stroke-width="0.75" marker-end="url(#arrowhead)" />
<polyline points="1580.8650000000005,298.75 1754.4900000000002,298.75" fill="none" stroke="var(--_line)" stroke-width="0.75" marker-end="url(#arrowhead)" />
<polyline points="1922.3400000000001,298.75 1942.3400000000001,298.75 1942.3400000000001,328.75 2171.0400000000004,328.75" fill="none" stroke="var(--_line)" stroke-width="0.75" marker-end="url(#arrowhead)" />
<polyline points="1922.3400000000001,298.75 1942.3400000000001,298.75 1942.3400000000001,268.75 2042.3400000000001,268.75" fill="none" stroke="var(--_line)" stroke-width="0.75" marker-end="url(#arrowhead)" />
<polyline points="2639.19,328.75 3014.715,328.75 3014.715,316.75" fill="none" stroke="var(--_line)" stroke-width="0.75" marker-end="url(#arrowhead)" />
<polyline points="2767.8900000000003,268.75 3014.715,268.75 3014.715,280.75" fill="none" stroke="var(--_line)" stroke-width="0.75" marker-end="url(#arrowhead)" />
<polyline points="3141.54,298.75 3261.5400000000004,298.75" fill="none" stroke="var(--_line)" stroke-width="0.75" marker-end="url(#arrowhead)" />
<rect x="398.25" y="146.75" width="78.92" height="27" rx="4" ry="4" fill="var(--bg)" stroke="var(--_inner-stroke)" stroke-width="0.5" />
<text x="437.71" y="160.25" text-anchor="middle" dy="0.35em" font-size="11" font-weight="400" fill="var(--_text-muted)">&quot;MCP stdio&quot;</text>
<rect x="764.1700000000001" y="102.5" width="124.68" height="27" rx="4" ry="4" fill="var(--bg)" stroke="var(--_inner-stroke)" stroke-width="0.5" />
<text x="826.5100000000001" y="116" text-anchor="middle" dy="0.35em" font-size="11" font-weight="400" fill="var(--_text-muted)">&quot;Response to agent&quot;</text>
<rect x="1168.7000000000003" y="161" width="113.24000000000001" height="27" rx="4" ry="4" fill="var(--bg)" stroke="var(--_inner-stroke)" stroke-width="0.5" />
<text x="1225.3200000000002" y="174.5" text-anchor="middle" dy="0.35em" font-size="11" font-weight="400" fill="var(--_text-muted)">&quot;fire and forget&quot;</text>
<rect x="60" y="122.25" width="282.25" height="36" rx="0" ry="0" fill="var(--_node-fill)" stroke="var(--_node-stroke)" stroke-width="0.75" />
<rect x="533.1700000000001" y="142.25" width="175" height="36" rx="0" ry="0" fill="var(--_node-fill)" stroke="var(--_node-stroke)" stroke-width="0.75" />
<rect x="944.8500000000001" y="142.25" width="167.85000000000002" height="36" rx="0" ry="0" fill="var(--_node-fill)" stroke="var(--_node-stroke)" stroke-width="0.75" />
<rect x="1337.9400000000003" y="108" width="296.55" height="36" rx="0" ry="0" fill="var(--_node-fill)" stroke="var(--_node-stroke)" stroke-width="0.75" />
<rect x="1391.5650000000003" y="280.75" width="189.3" height="36" rx="0" ry="0" fill="var(--_node-fill)" stroke="var(--_node-stroke)" stroke-width="0.75" />
<rect x="1754.4900000000002" y="280.75" width="167.85000000000002" height="36" rx="0" ry="0" fill="var(--_node-fill)" stroke="var(--_node-stroke)" stroke-width="0.75" />
<rect x="2171.0400000000004" y="310.75" width="468.15000000000003" height="36" rx="0" ry="0" fill="var(--_node-fill)" stroke="var(--_node-stroke)" stroke-width="0.75" />
<rect x="2042.3400000000001" y="250.75" width="725.5500000000001" height="36" rx="0" ry="0" fill="var(--_node-fill)" stroke="var(--_node-stroke)" stroke-width="0.75" />
<rect x="2887.8900000000003" y="280.75" width="253.65" height="36" rx="0" ry="0" fill="var(--_node-fill)" stroke="var(--_node-stroke)" stroke-width="0.75" />
<rect x="3261.5400000000004" y="282.25" width="439.55" height="33" fill="var(--_node-fill)" stroke="none" />
<line x1="3261.5400000000004" y1="282.25" x2="3261.5400000000004" y2="315.25" stroke="var(--_node-stroke)" stroke-width="0.75" />
<line x1="3701.0900000000006" y1="282.25" x2="3701.0900000000006" y2="315.25" stroke="var(--_node-stroke)" stroke-width="0.75" />
<ellipse cx="3481.3150000000005" cy="315.25" rx="219.775" ry="7" fill="var(--_node-fill)" stroke="var(--_node-stroke)" stroke-width="0.75" />
<ellipse cx="3481.3150000000005" cy="282.25" rx="219.775" ry="7" fill="var(--_node-fill)" stroke="var(--_node-stroke)" stroke-width="0.75" />
<text x="201.125" y="140.25" text-anchor="middle" dy="0.35em" font-size="13" font-weight="500" fill="var(--_text)">&quot;Agent calls&lt;br/&gt;memory_store_fact&quot;</text>
<text x="620.6700000000001" y="160.25" text-anchor="middle" dy="0.35em" font-size="13" font-weight="500" fill="var(--_text)">&quot;storeFact mutation&quot;</text>
<text x="1028.775" y="160.25" text-anchor="middle" dy="0.35em" font-size="13" font-weight="500" fill="var(--_text)">&quot;Insert fact to DB&quot;</text>
<text x="1486.2150000000004" y="126" text-anchor="middle" dy="0.35em" font-size="13" font-weight="500" fill="var(--_text)">&quot;Return factId +&lt;br/&gt;importanceScore&quot;</text>
<text x="1486.2150000000004" y="298.75" text-anchor="middle" dy="0.35em" font-size="13" font-weight="500" fill="var(--_text)">&quot;scheduler.runAfter 0&quot;</text>
<text x="1838.4150000000002" y="298.75" text-anchor="middle" dy="0.35em" font-size="13" font-weight="500" fill="var(--_text)">&quot;enrichFact action&quot;</text>
<text x="2405.1150000000002" y="328.75" text-anchor="middle" dy="0.35em" font-size="13" font-weight="500" fill="var(--_text)">&quot;generateEmbedding&lt;br/&gt;Cohere embed-v4.0&lt;br/&gt;1024 dimensions&quot;</text>
<text x="2405.1150000000002" y="268.75" text-anchor="middle" dy="0.35em" font-size="13" font-weight="500" fill="var(--_text)">&quot;calculateImportance&lt;br/&gt;factType weight&lt;br/&gt;emotionalWeight&lt;br/&gt;entity count&lt;br/&gt;content length&quot;</text>
<text x="3014.715" y="298.75" text-anchor="middle" dy="0.35em" font-size="13" font-weight="500" fill="var(--_text)">&quot;updateEnrichment&lt;br/&gt;mutation&quot;</text>
<text x="3481.3150000000005" y="298.75" text-anchor="middle" dy="0.35em" font-size="13" font-weight="500" fill="var(--_text)">&quot;facts table&lt;br/&gt;with embedding +&lt;br/&gt;refined importance&quot;</text>
</svg>