<svg xmlns="http://www.w3.org/2000/svg" viewBox="0 0 2998.3550000000005 309" width="2998.3550000000005" height="309" style="--bg:#1a1b26;--fg:#a9b1d6;--line:#3d59a1;--accent:#7aa2f7;--muted:#565f89;background:var(--bg)">
<style>
  @import url('https://fonts.googleapis.com/css2?family=Inter:wght@400;500;600;700&amp;display=swap');
  text { font-family: 'Inter', system-ui, sans-serif; }
  svg {
    /* Derived from --bg and --fg (overridable via --line, --accent, etc.) */
    --_text:          var(--fg);
    --_text-sec:      var(--muted, color-mix(in srgb, var(--fg) 60%, var(--bg)));
    --_text-muted:    var(--muted, color-mix(in srgb, var(--fg) 40%, var(--bg)));
    --_text-faint:    color-mix(in srgb, var(--fg) 25%, var(--bg));
    --_line:          var(--line, color-mix(in srgb, var(--fg) 30%, var(--bg)));
    --_arrow:         var(--accent, color-mix(in srgb, var(--fg) 50%, var(--bg)));
    --_node-fill:     var(--surface, color-mix(in srgb, var(--fg) 3%, var(--bg)));
    --_node-stroke:   var(--border, color-mix(in srgb, var(--fg) 20%, var(--bg)));
    --_group-fill:    var(--bg);
    --_group-hdr:     color-mix(in srgb, var(--fg) 5%, var(--bg));
    --_inner-stroke:  color-mix(in srgb, var(--fg) 12%, var(--bg));
    --_key-badge:     color-mix(in srgb, var(--fg) 10%, var(--bg));
  }
</style>
<defs>
  <marker id="arrowhead" markerWidth="8" markerHeight="4.8" refX="8" refY="2.4" orient="auto">
    <polygon points="0 0, 8 2.4, 0 4.8" fill="var(--_arrow)" />
  </marker>
  <marker id="arrowhead-start" markerWidth="8" markerHeight="4.8" refX="0" refY="2.4" orient="auto-start-reverse">
    <polygon points="8 0, 0 2.4, 8 4.8" fill="var(--_arrow)" />
  </marker>
</defs>
<rect x="1088.255" y="157" width="810.05" height="112" rx="0" ry="0" fill="var(--_group-fill)" stroke="var(--_node-stroke)" stroke-width="1" />
<rect x="1088.255" y="157" width="810.05" height="28" rx="0" ry="0" fill="var(--_group-hdr)" stroke="var(--_node-stroke)" stroke-width="1" />
<text x="1100.255" y="171" dy="0.35em" font-size="12" font-weight="600" fill="var(--_text-sec)">&quot;Global Scope&quot;</text>
<rect x="1918.3049999999998" y="157" width="1040.0500000000002" height="112" rx="0" ry="0" fill="var(--_group-fill)" stroke="var(--_node-stroke)" stroke-width="1" />
<rect x="1918.3049999999998" y="157" width="1040.0500000000002" height="28" rx="0" ry="0" fill="var(--_group-hdr)" stroke="var(--_node-stroke)" stroke-width="1" />
<text x="1930.3049999999998" y="171" dy="0.35em" font-size="12" font-weight="600" fill="var(--_text-sec)">&quot;Private Scopes&quot;</text>
<rect x="40" y="157" width="496.10499999999956" height="112" rx="0" ry="0" fill="var(--_group-fill)" stroke="var(--_node-stroke)" stroke-width="1" />
<rect x="40" y="157" width="496.10499999999956" height="28" rx="0" ry="0" fill="var(--_group-hdr)" stroke="var(--_node-stroke)" stroke-width="1" />
<text x="52" y="171" dy="0.35em" font-size="12" font-weight="600" fill="var(--_text-sec)">&quot;Team Scopes&quot;</text>
<rect x="556.1049999999996" y="157" width="512.1500000000001" height="112" rx="0" ry="0" fill="var(--_group-fill)" stroke="var(--_node-stroke)" stroke-width="1" />
<rect x="556.1049999999996" y="157" width="512.1500000000001" height="28" rx="0" ry="0" fill="var(--_group-hdr)" stroke="var(--_node-stroke)" stroke-width="1" />
<text x="568.1049999999996" y="171" dy="0.35em" font-size="12" font-weight="600" fill="var(--_text-sec)">&quot;Project Scopes&quot;</text>
<polyline points="1079.1249999999998,76 1079.1249999999998,96 1565.1424999999997,96 1565.1424999999997,193 2181.5299999999997,193 2181.5299999999997,213" fill="none" stroke="var(--_line)" stroke-width="0.75" marker-end="url(#arrowhead)" />
<polyline points="1079.1249999999998,76 1079.1249999999998,96 1051.3899999999999,96 1051.3899999999999,193 1262.1049999999998,193 1262.1049999999998,213" fill="none" stroke="var(--_line)" stroke-width="0.75" marker-end="url(#arrowhead)" />
<polyline points="1079.1249999999998,76 1079.1249999999998,96 835.0649999999997,96 835.0649999999997,193 403.42999999999995,193 403.42999999999995,231 514.1049999999996,231" fill="none" stroke="var(--_line)" stroke-width="0.75" marker-end="url(#arrowhead)" />
<polyline points="1079.1249999999998,76 1079.1249999999998,96 726.9849999999998,96 726.9849999999998,193 704.1424999999999,193 704.1424999999999,231 578.1049999999996,231" fill="none" stroke="var(--_line)" stroke-width="0.75" marker-end="url(#arrowhead)" />
<polyline points="1922.79,76 1922.79,96 2691.5550000000003,96 2691.5550000000003,213" fill="none" stroke="var(--_line)" stroke-width="0.75" marker-end="url(#arrowhead)" />
<polyline points="1922.79,76 1922.79,96 2129.4174999999996,96 2129.4174999999996,193 1580.2049999999997,193 1580.2049999999997,231 1413.955,231" fill="none" stroke="var(--_line)" stroke-width="0.75" marker-end="url(#arrowhead)" />
<polyline points="1922.79,76 1922.79,96 1664.6424999999997,96 1664.6424999999997,193 930.2174999999999,193 930.2174999999999,231 1046.2549999999997,231" fill="none" stroke="var(--_line)" stroke-width="0.75" marker-end="url(#arrowhead)" />
<polyline points="560.2699999999998,76 560.2699999999998,96 614.3099999999997,96 614.3099999999997,193 182.675,193 182.675,231 67.40499999999952,231" fill="none" stroke="var(--_line)" stroke-width="0.75" marker-end="url(#arrowhead)" />
<polyline points="560.2699999999998,76 560.2699999999998,96 506.2299999999998,96 506.2299999999998,193 1185.1799999999998,193 1185.1799999999998,231 1110.2549999999997,231" fill="none" stroke="var(--_line)" stroke-width="0.75" marker-end="url(#arrowhead)" />
<rect x="1517.1024999999997" y="131" width="96.08" height="27" rx="4" ry="4" fill="var(--bg)" stroke="var(--_inner-stroke)" stroke-width="0.5" />
<text x="1565.1424999999997" y="144.5" text-anchor="middle" dy="0.35em" font-size="11" font-weight="400" fill="var(--_text-muted)">&quot;read + write&quot;</text>
<rect x="1003.3499999999999" y="131" width="96.08" height="27" rx="4" ry="4" fill="var(--bg)" stroke="var(--_inner-stroke)" stroke-width="0.5" />
<text x="1051.3899999999999" y="144.5" text-anchor="middle" dy="0.35em" font-size="11" font-weight="400" fill="var(--_text-muted)">&quot;read + write&quot;</text>
<rect x="787.0249999999997" y="131" width="96.08" height="27" rx="4" ry="4" fill="var(--bg)" stroke="var(--_inner-stroke)" stroke-width="0.5" />
<text x="835.0649999999997" y="144.5" text-anchor="middle" dy="0.35em" font-size="11" font-weight="400" fill="var(--_text-muted)">&quot;read + write&quot;</text>
<rect x="678.9449999999998" y="131" width="96.08" height="27" rx="4" ry="4" fill="var(--bg)" stroke="var(--_inner-stroke)" stroke-width="0.5" />
<text x="726.9849999999998" y="144.5" text-anchor="middle" dy="0.35em" font-size="11" font-weight="400" fill="var(--_text-muted)">&quot;read + write&quot;</text>
<rect x="2643.5150000000003" y="131" width="96.08" height="27" rx="4" ry="4" fill="var(--bg)" stroke="var(--_inner-stroke)" stroke-width="0.5" />
<text x="2691.5550000000003" y="144.5" text-anchor="middle" dy="0.35em" font-size="11" font-weight="400" fill="var(--_text-muted)">&quot;read + write&quot;</text>
<rect x="2081.3774999999996" y="131" width="96.08" height="27" rx="4" ry="4" fill="var(--bg)" stroke="var(--_inner-stroke)" stroke-width="0.5" />
<text x="2129.4174999999996" y="144.5" text-anchor="middle" dy="0.35em" font-size="11" font-weight="400" fill="var(--_text-muted)">&quot;read + write&quot;</text>
<rect x="1625.1824999999997" y="131" width="78.92" height="27" rx="4" ry="4" fill="var(--bg)" stroke="var(--_inner-stroke)" stroke-width="0.5" />
<text x="1664.6424999999997" y="144.5" text-anchor="middle" dy="0.35em" font-size="11" font-weight="400" fill="var(--_text-muted)">&quot;read only&quot;</text>
<rect x="566.2699999999998" y="131" width="96.08" height="27" rx="4" ry="4" fill="var(--bg)" stroke="var(--_inner-stroke)" stroke-width="0.5" />
<text x="614.3099999999997" y="144.5" text-anchor="middle" dy="0.35em" font-size="11" font-weight="400" fill="var(--_text-muted)">&quot;read + write&quot;</text>
<rect x="458.18999999999977" y="131" width="96.08" height="27" rx="4" ry="4" fill="var(--bg)" stroke="var(--_inner-stroke)" stroke-width="0.5" />
<text x="506.2299999999998" y="144.5" text-anchor="middle" dy="0.35em" font-size="11" font-weight="400" fill="var(--_text-muted)">&quot;read + write&quot;</text>
<rect x="1041.6749999999997" y="40" width="74.9" height="36" rx="0" ry="0" fill="var(--_node-fill)" stroke="var(--_node-stroke)" stroke-width="0.75" />
<rect x="1881.7649999999999" y="40" width="82.05000000000001" height="36" rx="0" ry="0" fill="var(--_node-fill)" stroke="var(--_node-stroke)" stroke-width="0.75" />
<rect x="504.94499999999977" y="40" width="110.65" height="36" rx="0" ry="0" fill="var(--_node-fill)" stroke="var(--_node-stroke)" stroke-width="0.75" />
<rect x="1110.2549999999997" y="213" width="303.70000000000005" height="36" rx="0" ry="0" fill="var(--_node-fill)" stroke="var(--_node-stroke)" stroke-width="0.75" />
<rect x="1437.955" y="213" width="196.45000000000002" height="36" rx="0" ry="0" fill="var(--_node-fill)" stroke="var(--_node-stroke)" stroke-width="0.75" />
<rect x="1658.4049999999997" y="213" width="217.9" height="36" rx="0" ry="0" fill="var(--_node-fill)" stroke="var(--_node-stroke)" stroke-width="0.75" />
<rect x="1940.3049999999998" y="213" width="482.45000000000005" height="36" rx="0" ry="0" fill="var(--_node-fill)" stroke="var(--_node-stroke)" stroke-width="0.75" />
<rect x="2446.755" y="213" width="489.6" height="36" rx="0" ry="0" fill="var(--_node-fill)" stroke="var(--_node-stroke)" stroke-width="0.75" />
<rect x="67.40499999999952" y="213" width="446.70000000000005" height="36" rx="0" ry="0" fill="var(--_node-fill)" stroke="var(--_node-stroke)" stroke-width="0.75" />
<rect x="578.1049999999996" y="213" width="468.15000000000003" height="36" rx="0" ry="0" fill="var(--_node-fill)" stroke="var(--_node-stroke)" stroke-width="0.75" />
<text x="1079.1249999999998" y="58" text-anchor="middle" dy="0.35em" font-size="13" font-weight="500" fill="var(--_text)">&quot;Indy&quot;</text>
<text x="1922.79" y="58" text-anchor="middle" dy="0.35em" font-size="13" font-weight="500" fill="var(--_text)">&quot;Coder&quot;</text>
<text x="560.2699999999998" y="58" text-anchor="middle" dy="0.35em" font-size="13" font-weight="500" fill="var(--_text)">&quot;ML Worker&quot;</text>
<text x="1262.1049999999996" y="231" text-anchor="middle" dy="0.35em" font-size="13" font-weight="500" fill="var(--_text)">&quot;readPolicy: all&lt;br/&gt;writePolicy: all&quot;</text>
<text x="1536.1799999999998" y="231" text-anchor="middle" dy="0.35em" font-size="13" font-weight="500" fill="var(--_text)">&quot;Engram uses Convex...&quot;</text>
<text x="1767.3549999999998" y="231" text-anchor="middle" dy="0.35em" font-size="13" font-weight="500" fill="var(--_text)">&quot;Cohere Embed 4 chosen...&quot;</text>
<text x="2181.5299999999997" y="231" text-anchor="middle" dy="0.35em" font-size="13" font-weight="500" fill="var(--_text)">&quot;private-indy&lt;br/&gt;readPolicy: members&lt;br/&gt;writePolicy: members&quot;</text>
<text x="2691.5550000000003" y="231" text-anchor="middle" dy="0.35em" font-size="13" font-weight="500" fill="var(--_text)">&quot;private-coder&lt;br/&gt;readPolicy: members&lt;br/&gt;writePolicy: members&quot;</text>
<text x="290.75499999999954" y="231" text-anchor="middle" dy="0.35em" font-size="13" font-weight="500" fill="var(--_text)">&quot;team-ml&lt;br/&gt;readPolicy: members&lt;br/&gt;writePolicy: members&quot;</text>
<text x="812.1799999999996" y="231" text-anchor="middle" dy="0.35em" font-size="13" font-weight="500" fill="var(--_text)">&quot;project-engram&lt;br/&gt;readPolicy: all&lt;br/&gt;writePolicy: members&quot;</text>
</svg>