<svg xmlns="http://www.w3.org/2000/svg" viewBox="0 0 2711.0675 501" width="2711.0675" height="501" style="--bg:#FFFFFF;--fg:#27272A;background:var(--bg)">
<style>
  @import url('https://fonts.googleapis.com/css2?family=Inter:wght@400;500;600;700&amp;display=swap');
  text { font-family: 'Inter', system-ui, sans-serif; }
  svg {
    /* Derived from --bg and --fg (overridable via --line, --accent, etc.) */
    --_text:          var(--fg);
    --_text-sec:      var(--muted, color-mix(in srgb, var(--fg) 60%, var(--bg)));
    --_text-muted:    var(--muted, color-mix(in srgb, var(--fg) 40%, var(--bg)));
    --_text-faint:    color-mix(in srgb, var(--fg) 25%, var(--bg));
    --_line:          var(--line, color-mix(in srgb, var(--fg) 30%, var(--bg)));
    --_arrow:         var(--accent, color-mix(in srgb, var(--fg) 50%, var(--bg)));
    --_node-fill:     var(--surface, color-mix(in srgb, var(--fg) 3%, var(--bg)));
    --_node-stroke:   var(--border, color-mix(in srgb, var(--fg) 20%, var(--bg)));
    --_group-fill:    var(--bg);
    --_group-hdr:     color-mix(in srgb, var(--fg) 5%, var(--bg));
    --_inner-stroke:  color-mix(in srgb, var(--fg) 12%, var(--bg));
    --_key-badge:     color-mix(in srgb, var(--fg) 10%, var(--bg));
  }
</style>
<defs>
  <marker id="arrowhead" markerWidth="8" markerHeight="4.8" refX="8" refY="2.4" orient="auto">
    <polygon points="0 0, 8 2.4, 0 4.8" fill="var(--_arrow)" />
  </marker>
  <marker id="arrowhead-start" markerWidth="8" markerHeight="4.8" refX="0" refY="2.4" orient="auto-start-reverse">
    <polygon points="8 0, 0 2.4, 8 4.8" fill="var(--_arrow)" />
  </marker>
</defs>
<rect x="2039.7674999999995" y="309" width="631.3" height="152" rx="0" ry="0" fill="var(--_group-fill)" stroke="var(--_node-stroke)" stroke-width="1" />
<rect x="2039.7674999999995" y="309" width="631.3" height="28" rx="0" ry="0" fill="var(--_group-hdr)" stroke="var(--_node-stroke)" stroke-width="1" />
<text x="2051.7674999999995" y="323" dy="0.35em" font-size="12" font-weight="600" fill="var(--_text-sec)">&quot;🌍 Global Scope&quot;</text>
<rect x="1102.3175" y="293" width="917.4499999999998" height="168" rx="0" ry="0" fill="var(--_group-fill)" stroke="var(--_node-stroke)" stroke-width="1" />
<rect x="1102.3175" y="293" width="917.4499999999998" height="28" rx="0" ry="0" fill="var(--_group-hdr)" stroke="var(--_node-stroke)" stroke-width="1" />
<text x="1114.3175" y="307" dy="0.35em" font-size="12" font-weight="600" fill="var(--_text-sec)">&quot;👥 Team Scopes&quot;</text>
<rect x="1122.3175" y="329" width="389.39999999999986" height="112" rx="0" ry="0" fill="var(--_group-fill)" stroke="var(--_node-stroke)" stroke-width="1" />
<rect x="1122.3175" y="329" width="389.39999999999986" height="28" rx="0" ry="0" fill="var(--_group-hdr)" stroke="var(--_node-stroke)" stroke-width="1" />
<text x="1134.3175" y="343" dy="0.35em" font-size="12" font-weight="600" fill="var(--_text-sec)">&quot;team-ml&quot;</text>
<rect x="1531.7175000000002" y="329" width="468.04999999999995" height="112" rx="0" ry="0" fill="var(--_group-fill)" stroke="var(--_node-stroke)" stroke-width="1" />
<rect x="1531.7175000000002" y="329" width="468.04999999999995" height="28" rx="0" ry="0" fill="var(--_group-hdr)" stroke="var(--_node-stroke)" stroke-width="1" />
<text x="1543.7175000000002" y="343" dy="0.35em" font-size="12" font-weight="600" fill="var(--_text-sec)">&quot;team-dev&quot;</text>
<rect x="40" y="293" width="1042.3175" height="168" rx="0" ry="0" fill="var(--_group-fill)" stroke="var(--_node-stroke)" stroke-width="1" />
<rect x="40" y="293" width="1042.3175" height="28" rx="0" ry="0" fill="var(--_group-hdr)" stroke="var(--_node-stroke)" stroke-width="1" />
<text x="52" y="307" dy="0.35em" font-size="12" font-weight="600" fill="var(--_text-sec)">&quot;📁 Project Scopes&quot;</text>
<rect x="512.3000000000002" y="329" width="550.0174999999999" height="112" rx="0" ry="0" fill="var(--_group-fill)" stroke="var(--_node-stroke)" stroke-width="1" />
<rect x="512.3000000000002" y="329" width="550.0174999999999" height="28" rx="0" ry="0" fill="var(--_group-hdr)" stroke="var(--_node-stroke)" stroke-width="1" />
<text x="524.3000000000002" y="343" dy="0.35em" font-size="12" font-weight="600" fill="var(--_text-sec)">&quot;project-briefly&quot;</text>
<rect x="60.00000000000003" y="329" width="432.3000000000001" height="112" rx="0" ry="0" fill="var(--_group-fill)" stroke="var(--_node-stroke)" stroke-width="1" />
<rect x="60.00000000000003" y="329" width="432.3000000000001" height="28" rx="0" ry="0" fill="var(--_group-hdr)" stroke="var(--_node-stroke)" stroke-width="1" />
<text x="72.00000000000003" y="343" dy="0.35em" font-size="12" font-weight="600" fill="var(--_text-sec)">&quot;project-engram&quot;</text>
<rect x="71.17499999999995" y="40" width="2389.7025" height="168" rx="0" ry="0" fill="var(--_group-fill)" stroke="var(--_node-stroke)" stroke-width="1" />
<rect x="71.17499999999995" y="40" width="2389.7025" height="28" rx="0" ry="0" fill="var(--_group-hdr)" stroke="var(--_node-stroke)" stroke-width="1" />
<text x="83.17499999999995" y="54" dy="0.35em" font-size="12" font-weight="600" fill="var(--_text-sec)">&quot;🔒 Private Scopes&quot;</text>
<rect x="91.17499999999995" y="76" width="1463.105" height="112" rx="0" ry="0" fill="var(--_group-fill)" stroke="var(--_node-stroke)" stroke-width="1" />
<rect x="91.17499999999995" y="76" width="1463.105" height="28" rx="0" ry="0" fill="var(--_group-hdr)" stroke="var(--_node-stroke)" stroke-width="1" />
<text x="103.17499999999995" y="90" dy="0.35em" font-size="12" font-weight="600" fill="var(--_text-sec)">&quot;indy-private&quot;</text>
<rect x="1574.28" y="76" width="866.5974999999999" height="112" rx="0" ry="0" fill="var(--_group-fill)" stroke="var(--_node-stroke)" stroke-width="1" />
<rect x="1574.28" y="76" width="866.5974999999999" height="28" rx="0" ry="0" fill="var(--_group-hdr)" stroke="var(--_node-stroke)" stroke-width="1" />
<text x="1586.28" y="90" dy="0.35em" font-size="12" font-weight="600" fill="var(--_text-sec)">&quot;coder-private&quot;</text>
<polyline points="666.4725000000001,168 666.4725000000001,188 1493.1049999999998,188 1493.1049999999998,345 2114.5175,345 2114.5175,403 2061.7675,403" fill="none" stroke="var(--_line)" stroke-width="0.75" marker-end="url(#arrowhead)" />
<polyline points="1902.3925,168 1902.3925,188 2377.915,188 2377.915,403 2236.7675,403" fill="none" stroke="var(--_line)" stroke-width="0.75" marker-end="url(#arrowhead)" />
<polyline points="666.4725000000001,168 666.4725000000001,188 1005.795,188 1005.795,345 1224.6675,345 1224.6675,385" fill="none" stroke="var(--_line)" stroke-width="0.75" marker-end="url(#arrowhead)" />
<polyline points="666.4725000000001,168 666.4725000000001,188 592.4125000000001,188 592.4125000000001,403 687.7675,403" fill="none" stroke="var(--_line)" stroke-width="0.75" marker-end="url(#arrowhead)" />
<polyline points="666.4725000000001,168 666.4725000000001,188 162.34999999999997,188 162.34999999999997,385" fill="none" stroke="var(--_line)" stroke-width="0.75" marker-end="url(#arrowhead)" />
<polyline points="1902.3925,168 1902.3925,188 2123.8274999999994,188 2123.8274999999994,345 1655.5175,345 1655.5175,385" fill="none" stroke="var(--_line)" stroke-width="0.75" marker-end="url(#arrowhead)" />
<polyline points="1902.3925,168 1902.3925,188 1743.1674999999998,188 1743.1674999999998,345 914.1550000000001,345 914.1550000000001,403 884.2175000000001,403" fill="none" stroke="var(--_line)" stroke-width="0.75" marker-end="url(#arrowhead)" />
<rect x="1453.6449999999998" y="263" width="78.92" height="27" rx="4" ry="4" fill="var(--bg)" stroke="var(--_inner-stroke)" stroke-width="0.5" />
<text x="1493.1049999999998" y="276.5" text-anchor="middle" dy="0.35em" font-size="11" font-weight="400" fill="var(--_text-muted)">&quot;read: all&quot;</text>
<rect x="2338.455" y="263" width="78.92" height="27" rx="4" ry="4" fill="var(--bg)" stroke="var(--_inner-stroke)" stroke-width="0.5" />
<text x="2377.915" y="276.5" text-anchor="middle" dy="0.35em" font-size="11" font-weight="400" fill="var(--_text-muted)">&quot;read: all&quot;</text>
<rect x="937.7349999999999" y="263" width="136.12" height="27" rx="4" ry="4" fill="var(--bg)" stroke="var(--_inner-stroke)" stroke-width="0.5" />
<text x="1005.795" y="276.5" text-anchor="middle" dy="0.35em" font-size="11" font-weight="400" fill="var(--_text-muted)">&quot;read+write: members&quot;</text>
<rect x="524.3525000000002" y="263" width="136.12" height="27" rx="4" ry="4" fill="var(--bg)" stroke="var(--_inner-stroke)" stroke-width="0.5" />
<text x="592.4125000000001" y="276.5" text-anchor="middle" dy="0.35em" font-size="11" font-weight="400" fill="var(--_text-muted)">&quot;read+write: members&quot;</text>
<rect x="94.28999999999996" y="263" width="136.12" height="27" rx="4" ry="4" fill="var(--bg)" stroke="var(--_inner-stroke)" stroke-width="0.5" />
<text x="162.34999999999997" y="276.5" text-anchor="middle" dy="0.35em" font-size="11" font-weight="400" fill="var(--_text-muted)">&quot;read+write: members&quot;</text>
<rect x="2055.7674999999995" y="263" width="136.12" height="27" rx="4" ry="4" fill="var(--bg)" stroke="var(--_inner-stroke)" stroke-width="0.5" />
<text x="2123.8274999999994" y="276.5" text-anchor="middle" dy="0.35em" font-size="11" font-weight="400" fill="var(--_text-muted)">&quot;read+write: members&quot;</text>
<rect x="1675.1074999999998" y="263" width="136.12" height="27" rx="4" ry="4" fill="var(--bg)" stroke="var(--_inner-stroke)" stroke-width="0.5" />
<text x="1743.1674999999998" y="276.5" text-anchor="middle" dy="0.35em" font-size="11" font-weight="400" fill="var(--_text-muted)">&quot;read+write: members&quot;</text>
<rect x="2061.7675" y="385" width="175" height="36" rx="0" ry="0" fill="var(--_node-fill)" stroke="var(--_node-stroke)" stroke-width="0.75" />
<rect x="2260.7675" y="385" width="182.15" height="36" rx="0" ry="0" fill="var(--_node-fill)" stroke="var(--_node-stroke)" stroke-width="0.75" />
<rect x="2466.9175000000005" y="385" width="182.15" height="36" rx="0" ry="0" fill="var(--_node-fill)" stroke="var(--_node-stroke)" stroke-width="0.75" />
<rect x="1144.3175" y="385" width="160.70000000000002" height="36" rx="0" ry="0" fill="var(--_node-fill)" stroke="var(--_node-stroke)" stroke-width="0.75" />
<rect x="1329.0175000000002" y="385" width="160.70000000000002" height="36" rx="0" ry="0" fill="var(--_node-fill)" stroke="var(--_node-stroke)" stroke-width="0.75" />
<rect x="1553.7175" y="385" width="203.60000000000002" height="36" rx="0" ry="0" fill="var(--_node-fill)" stroke="var(--_node-stroke)" stroke-width="0.75" />
<rect x="1781.3174999999999" y="385" width="196.45000000000002" height="36" rx="0" ry="0" fill="var(--_node-fill)" stroke="var(--_node-stroke)" stroke-width="0.75" />
<rect x="687.7675" y="385" width="196.45000000000002" height="36" rx="0" ry="0" fill="var(--_node-fill)" stroke="var(--_node-stroke)" stroke-width="0.75" />
<rect x="908.2175000000002" y="385" width="132.10000000000002" height="36" rx="0" ry="0" fill="var(--_node-fill)" stroke="var(--_node-stroke)" stroke-width="0.75" />
<rect x="81.99999999999996" y="385" width="160.70000000000002" height="36" rx="0" ry="0" fill="var(--_node-fill)" stroke="var(--_node-stroke)" stroke-width="0.75" />
<rect x="266.7" y="385" width="203.60000000000002" height="36" rx="0" ry="0" fill="var(--_node-fill)" stroke="var(--_node-stroke)" stroke-width="0.75" />
<rect x="113.17500000000001" y="132" width="189.3" height="36" rx="0" ry="0" fill="var(--_node-fill)" stroke="var(--_node-stroke)" stroke-width="0.75" />
<rect x="586.1225000000001" y="132" width="160.70000000000002" height="36" rx="0" ry="0" fill="var(--_node-fill)" stroke="var(--_node-stroke)" stroke-width="0.75" />
<rect x="1596.28" y="132" width="167.85000000000002" height="36" rx="0" ry="0" fill="var(--_node-fill)" stroke="var(--_node-stroke)" stroke-width="0.75" />
<rect x="1818.4675" y="132" width="167.85000000000002" height="36" rx="0" ry="0" fill="var(--_node-fill)" stroke="var(--_node-stroke)" stroke-width="0.75" />
<text x="2149.2675" y="403" text-anchor="middle" dy="0.35em" font-size="13" font-weight="500" fill="var(--_text)">&quot;System preferences&quot;</text>
<text x="2351.8424999999997" y="403" text-anchor="middle" dy="0.35em" font-size="13" font-weight="500" fill="var(--_text)">&quot;User identity facts&quot;</text>
<text x="2557.9925000000003" y="403" text-anchor="middle" dy="0.35em" font-size="13" font-weight="500" fill="var(--_text)">&quot;Tool configurations&quot;</text>
<text x="1224.6675" y="403" text-anchor="middle" dy="0.35em" font-size="13" font-weight="500" fill="var(--_text)">&quot;Model benchmarks&quot;</text>
<text x="1409.3675" y="403" text-anchor="middle" dy="0.35em" font-size="13" font-weight="500" fill="var(--_text)">&quot;Training configs&quot;</text>
<text x="1655.5175" y="403" text-anchor="middle" dy="0.35em" font-size="13" font-weight="500" fill="var(--_text)">&quot;Architecture decisions&quot;</text>
<text x="1879.5424999999998" y="403" text-anchor="middle" dy="0.35em" font-size="13" font-weight="500" fill="var(--_text)">&quot;Code patterns learned&quot;</text>
<text x="785.9925000000001" y="403" text-anchor="middle" dy="0.35em" font-size="13" font-weight="500" fill="var(--_text)">&quot;API integration notes&quot;</text>
<text x="974.2675000000002" y="403" text-anchor="middle" dy="0.35em" font-size="13" font-weight="500" fill="var(--_text)">&quot;Bug patterns&quot;</text>
<text x="162.34999999999997" y="403" text-anchor="middle" dy="0.35em" font-size="13" font-weight="500" fill="var(--_text)">&quot;Schema decisions&quot;</text>
<text x="368.5" y="403" text-anchor="middle" dy="0.35em" font-size="13" font-weight="500" fill="var(--_text)">&quot;Performance benchmarks&quot;</text>
<text x="207.82500000000002" y="150" text-anchor="middle" dy="0.35em" font-size="13" font-weight="500" fill="var(--_text)">&quot;Personal corrections&quot;</text>
<text x="666.4725000000001" y="150" text-anchor="middle" dy="0.35em" font-size="13" font-weight="500" fill="var(--_text)">&quot;Scratchpad notes&quot;</text>
<text x="1680.205" y="150" text-anchor="middle" dy="0.35em" font-size="13" font-weight="500" fill="var(--_text)">&quot;Build cache paths&quot;</text>
<text x="1902.3925" y="150" text-anchor="middle" dy="0.35em" font-size="13" font-weight="500" fill="var(--_text)">&quot;Error workarounds&quot;</text>
</svg>