<svg xmlns="http://www.w3.org/2000/svg" viewBox="0 0 666.95 1137" width="666.95" height="1137" style="--bg:#ffffff;--fg:#1f2328;--line:#d1d9e0;--accent:#0969da;--muted:#59636e;background:var(--bg)">
<style>
  @import url('https://fonts.googleapis.com/css2?family=Inter:wght@400;500;600;700&amp;display=swap');
  text { font-family: 'Inter', system-ui, sans-serif; }
  svg {
    /* Derived from --bg and --fg (overridable via --line, --accent, etc.) */
    --_text:          var(--fg);
    --_text-sec:      var(--muted, color-mix(in srgb, var(--fg) 60%, var(--bg)));
    --_text-muted:    var(--muted, color-mix(in srgb, var(--fg) 40%, var(--bg)));
    --_text-faint:    color-mix(in srgb, var(--fg) 25%, var(--bg));
    --_line:          var(--line, color-mix(in srgb, var(--fg) 30%, var(--bg)));
    --_arrow:         var(--accent, color-mix(in srgb, var(--fg) 50%, var(--bg)));
    --_node-fill:     var(--surface, color-mix(in srgb, var(--fg) 3%, var(--bg)));
    --_node-stroke:   var(--border, color-mix(in srgb, var(--fg) 20%, var(--bg)));
    --_group-fill:    var(--bg);
    --_group-hdr:     color-mix(in srgb, var(--fg) 5%, var(--bg));
    --_inner-stroke:  color-mix(in srgb, var(--fg) 12%, var(--bg));
    --_key-badge:     color-mix(in srgb, var(--fg) 10%, var(--bg));
  }
</style>
<defs>
  <marker id="arrowhead" markerWidth="8" markerHeight="4.8" refX="8" refY="2.4" orient="auto">
    <polygon points="0 0, 8 2.4, 0 4.8" fill="var(--_arrow)" />
  </marker>
  <marker id="arrowhead-start" markerWidth="8" markerHeight="4.8" refX="0" refY="2.4" orient="auto-start-reverse">
    <polygon points="8 0, 0 2.4, 8 4.8" fill="var(--_arrow)" />
  </marker>
</defs>
<rect x="197.83000000000004" y="330" width="419.12" height="441" rx="0" ry="0" fill="var(--_group-fill)" stroke="var(--_node-stroke)" stroke-width="1" />
<rect x="197.83000000000004" y="330" width="419.12" height="28" rx="0" ry="0" fill="var(--_group-hdr)" stroke="var(--_node-stroke)" stroke-width="1" />
<text x="209.83000000000004" y="344" dy="0.35em" font-size="12" font-weight="600" fill="var(--_text-sec)">active</text>
<polyline points="596.95,249 596.95,399.5099151252491 466.86098212429624,399.5099151252491" fill="none" stroke="var(--_line)" stroke-width="0.75" marker-end="url(#arrowhead)" />
<polyline points="378.53000000000003,715 378.53000000000003,695 307.63,695 307.63,58 330.4275,58" fill="none" stroke="var(--_line)" stroke-width="0.75" marker-end="url(#arrowhead)" />
<polyline points="378.53000000000003,751 378.53000000000003,888" fill="none" stroke="var(--_line)" stroke-width="0.75" marker-end="url(#arrowhead)" />
<polyline points="289.40250000000003,76 289.40250000000003,96 138.38000000000002,96 138.38000000000002,213" fill="none" stroke="var(--_line)" stroke-width="0.75" marker-end="url(#arrowhead)" />
<polyline points="289.40250000000003,76 289.40250000000003,96 449.43000000000006,96 449.43000000000006,386" fill="none" stroke="var(--_line)" stroke-width="0.75" marker-end="url(#arrowhead)" />
<polyline points="378.53000000000003,924 378.53000000000003,1061" fill="none" stroke="var(--_line)" stroke-width="0.75" marker-end="url(#arrowhead)" />
<polyline points="138.38000000000002,249 138.38000000000002,269 378.53000000000003,269 378.53000000000003,395.4969099630442 433.5650241152588,395.4969099630442" fill="none" stroke="var(--_line)" stroke-width="0.75" marker-end="url(#arrowhead)" />
<polyline points="138.38000000000002,249 138.38000000000002,386" fill="none" stroke="var(--_line)" stroke-width="0.75" marker-end="url(#arrowhead)" />
<polyline points="449.43000000000006,422 449.43000000000006,542" fill="none" stroke="var(--_line)" stroke-width="0.75" marker-end="url(#arrowhead)" />
<polyline points="449.43000000000006,578 449.43000000000006,733 423.13000000000005,733" fill="none" stroke="var(--_line)" stroke-width="0.75" marker-end="url(#arrowhead)" />
<rect x="563.21" y="304" width="67.48" height="27" rx="4" ry="4" fill="var(--bg)" stroke="var(--_inner-stroke)" stroke-width="0.5" />
<text x="596.95" y="317.5" text-anchor="middle" dy="0.35em" font-size="11" font-weight="400" fill="var(--_text-muted)">storeFact</text>
<rect x="213.82999999999998" y="390.5" width="187.6" height="27" rx="4" ry="4" fill="var(--bg)" stroke="var(--_inner-stroke)" stroke-width="0.5" />
<text x="307.63" y="404" text-anchor="middle" dy="0.35em" font-size="11" font-weight="400" fill="var(--_text-muted)">decay cron&lt;br/&gt;accessCount low</text>
<rect x="273.29" y="806" width="210.48000000000002" height="27" rx="4" ry="4" fill="var(--bg)" stroke="var(--_inner-stroke)" stroke-width="0.5" />
<text x="378.53000000000003" y="819.5" text-anchor="middle" dy="0.35em" font-size="11" font-weight="400" fill="var(--_text-muted)">consolidate cron&lt;br/&gt;related facts</text>
<rect x="36.000000000000014" y="131" width="204.76000000000002" height="27" rx="4" ry="4" fill="var(--bg)" stroke="var(--_inner-stroke)" stroke-width="0.5" />
<text x="138.38000000000002" y="144.5" text-anchor="middle" dy="0.35em" font-size="11" font-weight="400" fill="var(--_text-muted)">forget cron&lt;br/&gt;extended dormancy</text>
<rect x="349.9100000000001" y="217.5" width="199.04000000000002" height="27" rx="4" ry="4" fill="var(--bg)" stroke="var(--_inner-stroke)" stroke-width="0.5" />
<text x="449.43000000000006" y="231" text-anchor="middle" dy="0.35em" font-size="11" font-weight="400" fill="var(--_text-muted)">bumpAccess&lt;br/&gt;recalled by agent</text>
<rect x="333.35" y="979" width="90.36" height="27" rx="4" ry="4" fill="var(--bg)" stroke="var(--_inner-stroke)" stroke-width="0.5" />
<text x="378.53000000000003" y="992.5" text-anchor="middle" dy="0.35em" font-size="11" font-weight="400" fill="var(--_text-muted)">theme created</text>
<rect x="330.49" y="304" width="96.08" height="27" rx="4" ry="4" fill="var(--bg)" stroke="var(--_inner-stroke)" stroke-width="0.5" />
<text x="378.53000000000003" y="317.5" text-anchor="middle" dy="0.35em" font-size="11" font-weight="400" fill="var(--_text-muted)">manual restore</text>
<rect x="41.72000000000003" y="304" width="193.32" height="27" rx="4" ry="4" fill="var(--bg)" stroke="var(--_inner-stroke)" stroke-width="0.5" />
<text x="138.38000000000002" y="317.5" text-anchor="middle" dy="0.35em" font-size="11" font-weight="400" fill="var(--_text-muted)">cleanup cron&lt;br/&gt;past retention</text>
<rect x="401.39000000000004" y="633" width="96.08" height="27" rx="4" ry="4" fill="var(--bg)" stroke="var(--_inner-stroke)" stroke-width="0.5" />
<text x="449.43000000000006" y="646.5" text-anchor="middle" dy="0.35em" font-size="11" font-weight="400" fill="var(--_text-muted)">async pipeline</text>
<circle cx="596.95" cy="231" r="16" fill="var(--_text)" stroke="none" />
<rect x="248.37750000000003" y="40" width="82.05000000000001" height="36" rx="6" ry="6" fill="var(--_node-fill)" stroke="var(--_node-stroke)" stroke-width="0.75" />
<rect x="341.08000000000004" y="888" width="74.9" height="36" rx="6" ry="6" fill="var(--_node-fill)" stroke="var(--_node-stroke)" stroke-width="0.75" />
<rect x="93.78000000000003" y="213" width="89.2" height="36" rx="6" ry="6" fill="var(--_node-fill)" stroke="var(--_node-stroke)" stroke-width="0.75" />
<rect x="341.08000000000004" y="1061" width="74.9" height="36" rx="6" ry="6" fill="var(--_node-fill)" stroke="var(--_node-stroke)" stroke-width="0.75" />
<rect x="100.93000000000002" y="386" width="74.9" height="36" rx="6" ry="6" fill="var(--_node-fill)" stroke="var(--_node-stroke)" stroke-width="0.75" />
<circle cx="449.43000000000006" cy="404" r="16" fill="var(--_text)" stroke="none" />
<rect x="401.25500000000005" y="542" width="96.35000000000001" height="36" rx="6" ry="6" fill="var(--_node-fill)" stroke="var(--_node-stroke)" stroke-width="0.75" />
<rect x="333.93" y="715" width="89.2" height="36" rx="6" ry="6" fill="var(--_node-fill)" stroke="var(--_node-stroke)" stroke-width="0.75" />

<text x="289.40250000000003" y="58" text-anchor="middle" dy="0.35em" font-size="13" font-weight="500" fill="var(--_text)">dormant</text>
<text x="378.53000000000003" y="906" text-anchor="middle" dy="0.35em" font-size="13" font-weight="500" fill="var(--_text)">merged</text>
<text x="138.38000000000002" y="231" text-anchor="middle" dy="0.35em" font-size="13" font-weight="500" fill="var(--_text)">archived</text>
<text x="378.53000000000003" y="1079" text-anchor="middle" dy="0.35em" font-size="13" font-weight="500" fill="var(--_text)">themes</text>
<text x="138.38000000000002" y="404" text-anchor="middle" dy="0.35em" font-size="13" font-weight="500" fill="var(--_text)">pruned</text>

<text x="449.43000000000006" y="560" text-anchor="middle" dy="0.35em" font-size="13" font-weight="500" fill="var(--_text)">enriching</text>
<text x="378.53000000000003" y="733" text-anchor="middle" dy="0.35em" font-size="13" font-weight="500" fill="var(--_text)">enriched</text>
</svg>